<svg width="24" height="24" viewBox="0 0 24 24" fill="none" xmlns="http://www.w3.org/2000/svg">
<g opacity="0.5">
<path fill-rule="evenodd" clip-rule="evenodd" d="M9.42901 8.969H13.143V10.819C13.678 9.755 15.05 8.799 17.111 8.799C21.062 8.799 22 10.917 22 14.803V22H18V15.688C18 13.475 17.465 12.227 16.103 12.227C14.214 12.227 13.429 13.572 13.429 15.687V22H9.42901V8.969ZM2.57001 21.83H6.57001V8.799H2.57001V21.83ZM7.14301 4.55C7.14316 4.88528 7.07666 5.21724 6.94739 5.52659C6.81813 5.83594 6.62866 6.11651 6.39001 6.352C5.90641 6.83262 5.25182 7.10165 4.57001 7.1C3.8894 7.09954 3.23632 6.8312 2.75201 6.353C2.51422 6.11671 2.32539 5.83582 2.19635 5.52643C2.06731 5.21704 2.00059 4.88522 2.00001 4.55C2.00001 3.873 2.27001 3.225 2.75301 2.747C3.23689 2.26816 3.89025 1.9997 4.57101 2C5.25301 2 5.90701 2.269 6.39001 2.747C6.87201 3.225 7.14301 3.873 7.14301 4.55Z" fill="#F8F8F8"/>
</g>
</svg>
