<svg width="22" height="22" viewBox="0 0 22 22" fill="none" xmlns="http://www.w3.org/2000/svg">
<g opacity="0.5">
<path d="M10.999 6.76224C9.87485 6.76224 8.79673 7.20881 8.00182 8.00371C7.20692 8.79862 6.76035 9.87674 6.76035 11.0009C6.76035 12.1251 7.20692 13.2032 8.00182 13.9981C8.79673 14.793 9.87485 15.2396 10.999 15.2396C12.1232 15.2396 13.2013 14.793 13.9962 13.9981C14.7911 13.2032 15.2377 12.1251 15.2377 11.0009C15.2377 9.87674 14.7911 8.79862 13.9962 8.00371C13.2013 7.20881 12.1232 6.76224 10.999 6.76224ZM10.999 13.7537C10.2687 13.7537 9.56829 13.4635 9.05188 12.9471C8.53546 12.4307 8.24535 11.7303 8.24535 11C8.24535 10.2697 8.53546 9.56926 9.05188 9.05285C9.56829 8.53644 10.2687 8.24632 10.999 8.24632C11.7293 8.24632 12.4297 8.53644 12.9462 9.05285C13.4626 9.56926 13.7527 10.2697 13.7527 11C13.7527 11.7303 13.4626 12.4307 12.9462 12.9471C12.4297 13.4635 11.7293 13.7537 10.999 13.7537Z" fill="#F8F8F8"/>
<path d="M15.4054 7.59459C15.9512 7.59459 16.3936 7.15217 16.3936 6.60642C16.3936 6.06067 15.9512 5.61826 15.4054 5.61826C14.8597 5.61826 14.4173 6.06067 14.4173 6.60642C14.4173 7.15217 14.8597 7.59459 15.4054 7.59459Z" fill="#F8F8F8"/>
<path d="M18.8218 5.60174C18.6096 5.05374 18.2853 4.55609 17.8697 4.14063C17.4541 3.72518 16.9563 3.40108 16.4083 3.18908C15.7669 2.94832 15.0893 2.81814 14.4044 2.80408C13.5217 2.76558 13.2421 2.75458 11.0036 2.75458C8.7651 2.75458 8.47818 2.75458 7.60276 2.80408C6.91837 2.81742 6.24129 2.94763 5.60076 3.18908C5.05254 3.40083 4.55463 3.72484 4.13899 4.14033C3.72334 4.55582 3.39914 5.0536 3.18718 5.60174C2.94638 6.24306 2.81649 6.92068 2.8031 7.60558C2.76368 8.48741 2.75176 8.76699 2.75176 11.0064C2.75176 13.2449 2.75176 13.53 2.8031 14.4072C2.81685 15.0929 2.9461 15.7694 3.18718 16.412C3.39974 16.9599 3.72425 17.4575 4.14 17.873C4.55574 18.2884 5.05357 18.6125 5.60168 18.8247C6.24099 19.0751 6.91835 19.2146 7.6046 19.2372C8.48735 19.2757 8.76693 19.2876 11.0054 19.2876C13.2439 19.2876 13.5308 19.2876 14.4063 19.2372C15.0911 19.2232 15.7686 19.0934 16.4101 18.8531C16.958 18.6406 17.4557 18.3162 17.8712 17.9006C18.2868 17.4851 18.6112 16.9874 18.8237 16.4395C19.0648 15.7978 19.194 15.1213 19.2078 14.4357C19.2472 13.5538 19.2591 13.2742 19.2591 11.0348C19.2591 8.79541 19.2591 8.51124 19.2078 7.63399C19.1971 6.93941 19.0665 6.25189 18.8218 5.60174ZM17.7053 14.3394C17.6994 14.8677 17.603 15.391 17.4203 15.8867C17.2826 16.2432 17.0719 16.5669 16.8016 16.837C16.5313 17.1072 16.2075 17.3177 15.8509 17.4552C15.3607 17.6371 14.8429 17.7335 14.3201 17.7402C13.4493 17.7806 13.2036 17.7907 10.9706 17.7907C8.73576 17.7907 8.50751 17.7907 7.62018 17.7402C7.09761 17.7338 6.58006 17.6374 6.09026 17.4552C5.73248 17.3186 5.40735 17.1084 5.13591 16.8382C4.86448 16.568 4.65278 16.2439 4.51451 15.8867C4.33434 15.3964 4.23797 14.8792 4.22943 14.3568C4.19001 13.486 4.18085 13.2403 4.18085 11.0073C4.18085 8.77341 4.18085 8.54516 4.22943 7.65691C4.23536 7.12893 4.33178 6.60588 4.51451 6.11049C4.7941 5.38724 5.36701 4.81799 6.09026 4.54116C6.5803 4.35979 7.0977 4.26338 7.62018 4.25608C8.49193 4.21666 8.73668 4.20566 10.9706 4.20566C13.2045 4.20566 13.4337 4.20566 14.3201 4.25608C14.843 4.26237 15.3608 4.35881 15.8509 4.54116C16.2074 4.67891 16.5312 4.88968 16.8015 5.15994C17.0717 5.4302 17.2825 5.75398 17.4203 6.11049C17.6004 6.60086 17.6968 7.11806 17.7053 7.64041C17.7448 8.51216 17.7548 8.75691 17.7548 10.9908C17.7548 13.2238 17.7548 13.464 17.7154 14.3403H17.7053V14.3394Z" fill="#F8F8F8"/>
</g>
</svg>
